<?xml version="1.0" encoding="UTF-8" standalone="no"?>
<!-- Created with Inkscape (http://www.inkscape.org/) -->

<svg
   width="128"
   height="128"
   viewBox="0 0 33.866666 33.866666"
   version="1.1"
   id="svg5"
   inkscape:version="1.2.1 (9c6d41e410, 2022-07-14)"
   sodipodi:docname="ash.svg"
   xmlns:inkscape="http://www.inkscape.org/namespaces/inkscape"
   xmlns:sodipodi="http://sodipodi.sourceforge.net/DTD/sodipodi-0.dtd"
   xmlns="http://www.w3.org/2000/svg"
   xmlns:svg="http://www.w3.org/2000/svg">
  <sodipodi:namedview
     id="namedview7"
     pagecolor="#ffffff"
     bordercolor="#ffffff"
     borderopacity="1"
     inkscape:showpageshadow="0"
     inkscape:pageopacity="0"
     inkscape:pagecheckerboard="1"
     inkscape:deskcolor="#808080"
     inkscape:document-units="mm"
     showgrid="true"
     showguides="true"
     inkscape:zoom="2.9825758"
     inkscape:cx="50.962662"
     inkscape:cy="83.820167"
     inkscape:window-width="1920"
     inkscape:window-height="1017"
     inkscape:window-x="-8"
     inkscape:window-y="-8"
     inkscape:window-maximized="1"
     inkscape:current-layer="layer1">
    <inkscape:grid
       type="xygrid"
       id="grid5509"
       spacingx="2.1166666"
       spacingy="2.1166666"
       empspacing="4" />
  </sodipodi:namedview>
  <defs
     id="defs2" />
  <g
     inkscape:label="Layer 1"
     inkscape:groupmode="layer"
     id="layer1">
    <path
       style="fill:#cecece;fill-opacity:1;stroke:#7b7b7b;stroke-width:1.464;stroke-linecap:round;stroke-linejoin:round;stroke-opacity:1;paint-order:fill markers stroke"
       d="m 2.1166666,4.233333 2.1166666,6.35 -2.1166666,6.35 6.3499998,6.35 2.1166666,0 2.116667,-2.116667 2.116666,2.116667 2.116667,-2.116667 2.116666,2.116667 2.116667,-2.116667 2.116667,2.116667 2.116666,0 6.350001,-6.35 -2.116668,-6.35 2.116668,-6.35 -2.116668,2e-7 L 19.049999,12.7 H 14.816666 L 4.2333332,4.2333332 l -2.1166666,-2e-7"
       id="path3835"
       sodipodi:nodetypes="cccccccccccccccccccc" />
    <path
       style="fill:#cecece;fill-opacity:1;stroke:#7b7b7b;stroke-width:1.464;stroke-linecap:round;stroke-linejoin:round;stroke-opacity:1;paint-order:fill markers stroke"
       d="M 12.699999,25.399999 H 8.4666664 l 2.1166666,2.116667 6.35,4.233334 6.349999,-4.233334 2.116667,-2.116667 h -4.233333 l -2.116667,2.116667 -2.116666,-2.116667 -2.116667,2.116667 -2.116667,-2.116667"
       id="path5034"
       sodipodi:nodetypes="ccccccccccc" />
    <path
       style="fill:#dec74d;fill-opacity:1;stroke:#7b7b7b;stroke-width:1.464;stroke-linecap:round;stroke-linejoin:round;stroke-opacity:1;paint-order:fill markers stroke"
       d="m 6.3499997,12.699999 h 4.2333333 l 4.233333,4.233334 H 10.583333 L 6.3499997,12.699999"
       id="path5036" />
    <path
       style="fill:#dec74d;fill-opacity:1;stroke:#7b7b7b;stroke-width:1.464;stroke-linecap:round;stroke-linejoin:round;stroke-opacity:1;paint-order:fill markers stroke"
       d="m 19.049999,16.933333 4.233333,-4.233334 h 4.233334 l -4.233334,4.233334 h -4.233333"
       id="path5038" />
  </g>
</svg>
