<?xml version="1.0" encoding="UTF-8" standalone="no"?>
<!-- Created with Inkscape (http://www.inkscape.org/) -->

<svg
   width="128"
   height="128"
   viewBox="0 0 33.866666 33.866666"
   version="1.1"
   id="svg5"
   inkscape:version="1.2.1 (9c6d41e410, 2022-07-14)"
   sodipodi:docname="card_back_red.svg"
   xmlns:inkscape="http://www.inkscape.org/namespaces/inkscape"
   xmlns:sodipodi="http://sodipodi.sourceforge.net/DTD/sodipodi-0.dtd"
   xmlns="http://www.w3.org/2000/svg"
   xmlns:svg="http://www.w3.org/2000/svg">
  <sodipodi:namedview
     id="namedview7"
     pagecolor="#ffffff"
     bordercolor="#ffffff"
     borderopacity="1"
     inkscape:showpageshadow="0"
     inkscape:pageopacity="0"
     inkscape:pagecheckerboard="1"
     inkscape:deskcolor="#808080"
     inkscape:document-units="mm"
     showgrid="true"
     showguides="true"
     inkscape:zoom="4.2179991"
     inkscape:cx="46.230451"
     inkscape:cy="64.485552"
     inkscape:window-width="1920"
     inkscape:window-height="1017"
     inkscape:window-x="-8"
     inkscape:window-y="-8"
     inkscape:window-maximized="1"
     inkscape:current-layer="layer1">
    <inkscape:grid
       type="xygrid"
       id="grid5509"
       spacingx="4.2333333"
       spacingy="4.2333333"
       empspacing="4" />
  </sodipodi:namedview>
  <defs
     id="defs2" />
  <g
     inkscape:label="Layer 1"
     inkscape:groupmode="layer"
     id="layer1">
    <rect
       style="fill:#b95944;fill-opacity:1;stroke:#5b2c22;stroke-width:1.602;stroke-linejoin:round;stroke-opacity:1;paint-order:fill markers stroke;stroke-dasharray:none"
       id="rect6600"
       width="30.147663"
       height="30.147663"
       x="1.8595021"
       y="1.8595021" />
    <path
       sodipodi:type="spiral"
       style="fill:none;fill-rule:evenodd;stroke:#5b2c22;stroke-width:1.3;stroke-linecap:round;stroke-dasharray:none;stroke-opacity:1"
       id="path896"
       sodipodi:cx="-12.7"
       sodipodi:cy="4.2333331"
       sodipodi:expansion="1"
       sodipodi:revolution="3"
       sodipodi:radius="15.2635"
       sodipodi:argument="-17.866762"
       sodipodi:t0="0"
       d="m -12.7,4.2333331 c 0.424505,0.6367578 -0.648901,0.8863783 -1.058333,0.7055555 -1.109537,-0.4900186 -0.998746,-2.0145691 -0.352778,-2.8222222 1.155486,-1.44470181 3.356924,-1.20073366 4.5861112,2e-7 1.8038817,1.7621252 1.4127323,4.718943 -0.352778,6.3499999 -2.3531472,2.1739425 -6.0881332,1.6292375 -8.1138892,-0.7055559 -2.549206,-2.9380995 -1.848123,-7.46078766 1.058334,-9.8777776 3.52011,-2.9272986 8.835403,-2.0683971 11.6416666,1.41111156 C -1.9845819,3.3949251 -3.0021233,9.5056863 -7.0555557,12.7 -11.735404,16.387961 -18.643453,15.211271 -22.225,10.583333 c -4.069581,-5.2585579 -2.733406,-12.9651268 2.469445,-16.9333334 5.836812,-4.4517276 14.3427735,-2.9558352 18.697222,2.8222229 4.8342632,6.4147397 3.1784852,15.7207345 -3.1750007,20.4611105"
       transform="translate(28.574999,12.7)" />
  </g>
</svg>
