<?xml version="1.0" encoding="UTF-8" standalone="no"?>
<!-- Created with Inkscape (http://www.inkscape.org/) -->

<svg
   width="128"
   height="128"
   viewBox="0 0 33.866666 33.866666"
   version="1.1"
   id="svg5"
   inkscape:version="1.2.1 (9c6d41e410, 2022-07-14)"
   sodipodi:docname="hit_points.svg"
   xmlns:inkscape="http://www.inkscape.org/namespaces/inkscape"
   xmlns:sodipodi="http://sodipodi.sourceforge.net/DTD/sodipodi-0.dtd"
   xmlns="http://www.w3.org/2000/svg"
   xmlns:svg="http://www.w3.org/2000/svg">
  <sodipodi:namedview
     id="namedview7"
     pagecolor="#ffffff"
     bordercolor="#ffffff"
     borderopacity="1"
     inkscape:showpageshadow="0"
     inkscape:pageopacity="0"
     inkscape:pagecheckerboard="1"
     inkscape:deskcolor="#808080"
     inkscape:document-units="mm"
     showgrid="true"
     showguides="true"
     inkscape:zoom="4.2179991"
     inkscape:cx="46.941688"
     inkscape:cy="86.059761"
     inkscape:window-width="1920"
     inkscape:window-height="1017"
     inkscape:window-x="-8"
     inkscape:window-y="-8"
     inkscape:window-maximized="1"
     inkscape:current-layer="layer1">
    <inkscape:grid
       type="xygrid"
       id="grid5509"
       spacingx="2.1166666"
       spacingy="2.1166666"
       empspacing="4" />
  </sodipodi:namedview>
  <defs
     id="defs2" />
  <g
     inkscape:label="Layer 1"
     inkscape:groupmode="layer"
     id="layer1">
    <g
       aria-label="❤️"
       id="text1621"
       style="font-size:16.9333px;line-height:1.25;font-family:'Noto Sans';-inkscape-font-specification:'Noto Sans';fill:#ff0000;stroke:#7b0000;stroke-width:1.464;stroke-linejoin:round;paint-order:fill markers stroke;fill-opacity:1;stroke-opacity:1"
       transform="matrix(1.4465304,0,0,1.5939415,-12.129529,-7.725204)">
      <path
         d="m 24.209344,6.9039988 c 0.496093,0 0.972893,0.066146 1.4304,0.1984371 0.457508,0.1267793 0.884699,0.3086799 1.281573,0.545702 0.402387,0.23151 0.766188,0.5126293 1.091405,0.8433578 0.330728,0.3252163 0.611847,0.6890177 0.843357,1.0914041 0.237022,0.3968741 0.418923,0.8240652 0.545702,1.2815732 0.132291,0.457507 0.198437,0.934308 0.198437,1.430401 0,0.733115 -0.135047,1.422132 -0.405142,2.067053 -0.264583,0.644921 -0.655945,1.226452 -1.174086,1.744593 l -7.929216,7.929216 -7.929217,-7.929216 c -0.518141,-0.518141 -0.912259,-1.099672 -1.182354,-1.744593 -0.264583,-0.644921 -0.396874,-1.333938 -0.396874,-2.067053 0,-0.496093 0.06339,-0.972894 0.190169,-1.430401 0.132291,-0.46302 0.314192,-0.8929672 0.545702,-1.2898415 0.23151,-0.3968742 0.512629,-0.7606756 0.843357,-1.0914041 0.330729,-0.3307285 0.69453,-0.6118477 1.091404,-0.8433577 0.396875,-0.2315099 0.824066,-0.4106545 1.281573,-0.5374338 0.46302,-0.1322914 0.942577,-0.1984371 1.43867,-0.1984371 0.424435,0 0.824065,0.044097 1.19889,0.1322914 0.374826,0.082682 0.727603,0.2039493 1.058332,0.3638014 0.336241,0.1598521 0.655945,0.3582892 0.959112,0.5953113 0.30868,0.2315099 0.609092,0.4960927 0.901236,0.7937484 0.292143,-0.2976557 0.589799,-0.5622385 0.892967,-0.7937484 0.308679,-0.2370221 0.628383,-0.4354592 0.959112,-0.5953113 0.336241,-0.1653643 0.691774,-0.2893875 1.0666,-0.3720696 0.374825,-0.082682 0.774456,-0.1240232 1.198891,-0.1240232 z"
         id="path1673"
         style="fill:#ff0000;fill-opacity:1;stroke:#7b0000;stroke-opacity:1"
         sodipodi:nodetypes="scccccscscscscssscsccccccss" />
    </g>
  </g>
</svg>
